<?xml version="1.0" encoding="UTF-8" standalone="no"?>
<svg width="30" height="25" viewBox="2 -2 28 30" fill="none" xmlns="http://www.w3.org/2000/svg">
<path d="M19.285 2.4563H3.10205V20.8974L23.0485 15.2521L19.285 2.4563Z" fill="#A0DAA6"/>
<path d="M3.99169 24.4423C3.16038 24.4423 2.44244 24.1526 1.83785 23.5732C1.25845 22.9686 0.96875 22.2507 0.96875 21.4194V3.28173C0.96875 2.45042 1.25845 1.74507 1.83785 1.16567C2.44244 0.561082 3.16038 0.258789 3.99169 0.258789H28.1752C29.0065 0.258789 29.7119 0.561082 30.2913 1.16567C30.8959 1.74507 31.1982 2.45042 31.1982 3.28173V21.4194C31.1982 22.2507 30.8959 22.9686 30.2913 23.5732C29.7119 24.1526 29.0065 24.4423 28.1752 24.4423H3.99169ZM3.99169 19.2278L21.4492 14.6933L18.5018 3.28173H3.99169V19.2278ZM7.58144 21.4194H28.1752V3.28173H21.6381L25.1523 16.885L7.58144 21.4194Z" fill="#063C8C"/>
</svg>
