<svg width="146" height="26" viewBox="0 0 146 26" fill="none" xmlns="http://www.w3.org/2000/svg">
<path d="M19.285 2.37048H3.10205V20.8115L23.0485 15.1663L19.285 2.37048Z" fill="#A0DAA6"/>
<path d="M3.99169 24.3565C3.16038 24.3565 2.44244 24.0668 1.83785 23.4874C1.25845 22.8828 0.96875 22.1649 0.96875 21.3336V3.19591C0.96875 2.36461 1.25845 1.65925 1.83785 1.07985C2.44244 0.475266 3.16038 0.172974 3.99169 0.172974H28.1752C29.0065 0.172974 29.7119 0.475266 30.2913 1.07985C30.8959 1.65925 31.1982 2.36461 31.1982 3.19591V21.3336C31.1982 22.1649 30.8959 22.8828 30.2913 23.4874C29.7119 24.0668 29.0065 24.3565 28.1752 24.3565H3.99169ZM3.99169 19.1419L21.4492 14.6075L18.5018 3.19591H3.99169V19.1419ZM7.58144 21.3336H28.1752V3.19591H21.6381L25.1523 16.7992L7.58144 21.3336Z" fill="#3995D7"/>
<path d="M139.98 20.6469C138.996 20.6469 138.113 20.4906 137.332 20.1781C136.551 19.8578 135.887 19.4164 135.34 18.8539C134.801 18.2914 134.387 17.639 134.098 16.8969C133.809 16.1469 133.664 15.35 133.664 14.5062V14.0375C133.664 13.0765 133.801 12.1976 134.074 11.4008C134.348 10.6039 134.738 9.91248 135.246 9.32654C135.762 8.7406 136.387 8.29138 137.121 7.97888C137.855 7.65857 138.684 7.49841 139.605 7.49841C140.504 7.49841 141.301 7.64685 141.996 7.94373C142.691 8.2406 143.273 8.66248 143.742 9.20935C144.219 9.75623 144.578 10.4125 144.82 11.1781C145.062 11.9359 145.184 12.7797 145.184 13.7094V15.1156H135.105V12.8656H141.867V12.6078C141.867 12.139 141.781 11.7211 141.609 11.3539C141.445 10.9789 141.195 10.682 140.859 10.4633C140.523 10.2445 140.094 10.1351 139.57 10.1351C139.125 10.1351 138.742 10.2328 138.422 10.4281C138.102 10.6234 137.84 10.8969 137.637 11.2484C137.441 11.6 137.293 12.014 137.191 12.4906C137.098 12.9594 137.051 13.475 137.051 14.0375V14.5062C137.051 15.014 137.121 15.4828 137.262 15.9125C137.41 16.3422 137.617 16.7133 137.883 17.0258C138.156 17.3383 138.484 17.5804 138.867 17.7523C139.258 17.9242 139.699 18.0101 140.191 18.0101C140.801 18.0101 141.367 17.8929 141.891 17.6586C142.422 17.4164 142.879 17.0531 143.262 16.5687L144.902 18.35C144.637 18.7328 144.273 19.1 143.812 19.4515C143.359 19.8031 142.812 20.0922 142.172 20.3187C141.531 20.5375 140.801 20.6469 139.98 20.6469Z" fill="#E0E0E0"/>
<path d="M124.02 10.1703V25.2875H120.645V7.73279H123.773L124.02 10.1703ZM132.047 13.932V14.1781C132.047 15.1 131.938 15.9554 131.719 16.7445C131.508 17.5336 131.195 18.2211 130.781 18.807C130.367 19.3851 129.852 19.8383 129.234 20.1664C128.625 20.4867 127.922 20.6469 127.125 20.6469C126.352 20.6469 125.68 20.4906 125.109 20.1781C124.539 19.8656 124.059 19.4281 123.668 18.8656C123.285 18.2953 122.977 17.6351 122.742 16.8851C122.508 16.1351 122.328 15.3304 122.203 14.4711V13.8265C122.328 12.9047 122.508 12.0609 122.742 11.2953C122.977 10.5219 123.285 9.85388 123.668 9.29138C124.059 8.72107 124.535 8.27966 125.098 7.96716C125.668 7.65466 126.336 7.49841 127.102 7.49841C127.906 7.49841 128.613 7.65076 129.223 7.95544C129.84 8.26013 130.355 8.69763 130.77 9.26794C131.191 9.83826 131.508 10.5179 131.719 11.307C131.938 12.0961 132.047 12.9711 132.047 13.932ZM128.66 14.1781V13.932C128.66 13.3929 128.613 12.8969 128.52 12.4437C128.434 11.9828 128.293 11.5804 128.098 11.2367C127.91 10.8929 127.66 10.6273 127.348 10.4398C127.043 10.2445 126.672 10.1469 126.234 10.1469C125.773 10.1469 125.379 10.2211 125.051 10.3695C124.73 10.5179 124.469 10.7328 124.266 11.014C124.062 11.2953 123.91 11.6312 123.809 12.0219C123.707 12.4125 123.645 12.8539 123.621 13.3461V14.975C123.66 15.5531 123.77 16.0726 123.949 16.5336C124.129 16.9867 124.406 17.3461 124.781 17.6117C125.156 17.8773 125.648 18.0101 126.258 18.0101C126.703 18.0101 127.078 17.9125 127.383 17.7172C127.688 17.514 127.934 17.2367 128.121 16.8851C128.316 16.5336 128.453 16.1273 128.531 15.6664C128.617 15.2054 128.66 14.7094 128.66 14.1781Z" fill="#E0E0E0"/>
<path d="M106.559 14.2015V13.9554C106.559 13.0258 106.691 12.1703 106.957 11.389C107.223 10.6 107.609 9.91638 108.117 9.33826C108.625 8.76013 109.25 8.31091 109.992 7.9906C110.734 7.66248 111.586 7.49841 112.547 7.49841C113.508 7.49841 114.363 7.66248 115.113 7.9906C115.863 8.31091 116.492 8.76013 117 9.33826C117.516 9.91638 117.906 10.6 118.172 11.389C118.438 12.1703 118.57 13.0258 118.57 13.9554V14.2015C118.57 15.1234 118.438 15.9789 118.172 16.7679C117.906 17.5492 117.516 18.2328 117 18.8187C116.492 19.3969 115.867 19.8461 115.125 20.1664C114.383 20.4867 113.531 20.6469 112.57 20.6469C111.609 20.6469 110.754 20.4867 110.004 20.1664C109.262 19.8461 108.633 19.3969 108.117 18.8187C107.609 18.2328 107.223 17.5492 106.957 16.7679C106.691 15.9789 106.559 15.1234 106.559 14.2015ZM109.934 13.9554V14.2015C109.934 14.7328 109.98 15.2289 110.074 15.6898C110.168 16.1508 110.316 16.557 110.52 16.9086C110.73 17.2523 111.004 17.5219 111.34 17.7172C111.676 17.9125 112.086 18.0101 112.57 18.0101C113.039 18.0101 113.441 17.9125 113.777 17.7172C114.113 17.5219 114.383 17.2523 114.586 16.9086C114.789 16.557 114.938 16.1508 115.031 15.6898C115.133 15.2289 115.184 14.7328 115.184 14.2015V13.9554C115.184 13.4398 115.133 12.9554 115.031 12.5023C114.938 12.0414 114.785 11.6351 114.574 11.2836C114.371 10.9242 114.102 10.6429 113.766 10.4398C113.43 10.2367 113.023 10.1351 112.547 10.1351C112.07 10.1351 111.664 10.2367 111.328 10.4398C111 10.6429 110.73 10.9242 110.52 11.2836C110.316 11.6351 110.168 12.0414 110.074 12.5023C109.98 12.9554 109.934 13.4398 109.934 13.9554Z" fill="#E0E0E0"/>
<path d="M99.8203 18.0101C100.234 18.0101 100.602 17.932 100.922 17.7758C101.242 17.6117 101.492 17.3851 101.672 17.0961C101.859 16.7992 101.957 16.4515 101.965 16.0531H105.141C105.133 16.9437 104.895 17.7367 104.426 18.432C103.957 19.1195 103.328 19.6625 102.539 20.0609C101.75 20.4515 100.867 20.6469 99.8906 20.6469C98.9062 20.6469 98.0469 20.4828 97.3125 20.1547C96.5859 19.8265 95.9805 19.3734 95.4961 18.7953C95.0117 18.2094 94.6484 17.5297 94.4062 16.7562C94.1641 15.975 94.043 15.139 94.043 14.2484V13.9086C94.043 13.0101 94.1641 12.1742 94.4062 11.4008C94.6484 10.6195 95.0117 9.93982 95.4961 9.36169C95.9805 8.77576 96.5859 8.31873 97.3125 7.9906C98.0391 7.66248 98.8906 7.49841 99.8672 7.49841C100.906 7.49841 101.816 7.69763 102.598 8.09607C103.387 8.49451 104.004 9.06482 104.449 9.80701C104.902 10.5414 105.133 11.4125 105.141 12.4203H101.965C101.957 11.9984 101.867 11.6156 101.695 11.2719C101.531 10.9281 101.289 10.6547 100.969 10.4515C100.656 10.2406 100.27 10.1351 99.8086 10.1351C99.3164 10.1351 98.9141 10.2406 98.6016 10.4515C98.2891 10.6547 98.0469 10.9359 97.875 11.2953C97.7031 11.6469 97.582 12.0492 97.5117 12.5023C97.4492 12.9476 97.418 13.4164 97.418 13.9086V14.2484C97.418 14.7406 97.4492 15.2133 97.5117 15.6664C97.5742 16.1195 97.6914 16.5219 97.8633 16.8734C98.043 17.225 98.2891 17.5023 98.6016 17.7054C98.9141 17.9086 99.3203 18.0101 99.8203 18.0101Z" fill="#E0E0E0"/>
<path d="M89.1094 16.9086C89.1094 16.6664 89.0391 16.4476 88.8984 16.2523C88.7578 16.057 88.4961 15.8773 88.1133 15.7133C87.7383 15.5414 87.1953 15.3851 86.4844 15.2445C85.8438 15.1039 85.2461 14.9281 84.6914 14.7172C84.1445 14.4984 83.668 14.2367 83.2617 13.932C82.8633 13.6273 82.5508 13.2679 82.3242 12.8539C82.0977 12.432 81.9844 11.9515 81.9844 11.4125C81.9844 10.8812 82.0977 10.3812 82.3242 9.91248C82.5586 9.44373 82.8906 9.02966 83.3203 8.67029C83.7578 8.3031 84.2891 8.01794 84.9141 7.81482C85.5469 7.60388 86.2578 7.49841 87.0469 7.49841C88.1484 7.49841 89.0938 7.67419 89.8828 8.02576C90.6797 8.37732 91.2891 8.86169 91.7109 9.47888C92.1406 10.0883 92.3555 10.7836 92.3555 11.5648H88.9805C88.9805 11.2367 88.9102 10.9437 88.7695 10.6859C88.6367 10.4203 88.4258 10.2133 88.1367 10.0648C87.8555 9.90857 87.4883 9.83044 87.0352 9.83044C86.6602 9.83044 86.3359 9.89685 86.0625 10.0297C85.7891 10.1547 85.5781 10.3265 85.4297 10.5453C85.2891 10.7562 85.2188 10.9906 85.2188 11.2484C85.2188 11.4437 85.2578 11.6195 85.3359 11.7758C85.4219 11.9242 85.5586 12.0609 85.7461 12.1859C85.9336 12.3109 86.1758 12.4281 86.4727 12.5375C86.7773 12.639 87.1523 12.7328 87.5977 12.8187C88.5117 13.0062 89.3281 13.2523 90.0469 13.557C90.7656 13.8539 91.3359 14.2601 91.7578 14.7758C92.1797 15.2836 92.3906 15.9515 92.3906 16.7797C92.3906 17.3422 92.2656 17.8578 92.0156 18.3265C91.7656 18.7953 91.4062 19.2054 90.9375 19.557C90.4688 19.9008 89.9062 20.1703 89.25 20.3656C88.6016 20.5531 87.8711 20.6469 87.0586 20.6469C85.8789 20.6469 84.8789 20.4359 84.0586 20.014C83.2461 19.5922 82.6289 19.057 82.207 18.4086C81.793 17.7523 81.5859 17.0804 81.5859 16.3929H84.7852C84.8008 16.8539 84.918 17.225 85.1367 17.5062C85.3633 17.7875 85.6484 17.9906 85.9922 18.1156C86.3438 18.2406 86.7227 18.3031 87.1289 18.3031C87.5664 18.3031 87.9297 18.2445 88.2188 18.1273C88.5078 18.0023 88.7266 17.8383 88.875 17.6351C89.0312 17.4242 89.1094 17.182 89.1094 16.9086Z" fill="#E0E0E0"/>
<path d="M72.1055 10.4398V20.4125H68.7305V7.73279H71.8945L72.1055 10.4398ZM71.6133 13.6273H70.6992C70.6992 12.6898 70.8203 11.8461 71.0625 11.0961C71.3047 10.3383 71.6445 9.69373 72.082 9.16248C72.5195 8.62341 73.0391 8.21326 73.6406 7.93201C74.25 7.64294 74.9297 7.49841 75.6797 7.49841C76.2734 7.49841 76.8164 7.58435 77.3086 7.75623C77.8008 7.9281 78.2227 8.20154 78.5742 8.57654C78.9336 8.95154 79.207 9.44763 79.3945 10.0648C79.5898 10.682 79.6875 11.4359 79.6875 12.3265V20.4125H76.2891V12.3148C76.2891 11.7523 76.2109 11.3148 76.0547 11.0023C75.8984 10.6898 75.668 10.4711 75.3633 10.3461C75.0664 10.2133 74.6992 10.1469 74.2617 10.1469C73.8086 10.1469 73.4141 10.2367 73.0781 10.4164C72.75 10.5961 72.4766 10.8461 72.2578 11.1664C72.0469 11.4789 71.8867 11.8461 71.7773 12.2679C71.668 12.6898 71.6133 13.1429 71.6133 13.6273Z" fill="#3995D7"/>
<path d="M66.0117 7.73279V20.4125H62.625V7.73279H66.0117ZM62.4141 4.4281C62.4141 3.93591 62.5859 3.52966 62.9297 3.20935C63.2734 2.88904 63.7344 2.72888 64.3125 2.72888C64.8828 2.72888 65.3398 2.88904 65.6836 3.20935C66.0352 3.52966 66.2109 3.93591 66.2109 4.4281C66.2109 4.92029 66.0352 5.32654 65.6836 5.64685C65.3398 5.96716 64.8828 6.12732 64.3125 6.12732C63.7344 6.12732 63.2734 5.96716 62.9297 5.64685C62.5859 5.32654 62.4141 4.92029 62.4141 4.4281Z" fill="#3995D7"/>
<path d="M45.7734 17.7054L49.1719 3.34998H51.0703L51.5039 5.7406L47.8828 20.4125H45.8438L45.7734 17.7054ZM44.0273 3.34998L46.8398 17.7054L46.6055 20.4125H44.332L40.5469 3.34998H44.0273ZM54.4922 17.6469L57.2695 3.34998H60.75L56.9766 20.4125H54.7031L54.4922 17.6469ZM52.1367 3.34998L55.5586 17.764L55.4648 20.4125H53.4258L49.7812 5.72888L50.25 3.34998H52.1367Z" fill="#3995D7"/>
</svg>
