<svg width="146" height="26" viewBox="0 0 146 26" fill="none" xmlns="http://www.w3.org/2000/svg">
<path d="M19.285 2.4563H3.10205V20.8974L23.0485 15.2521L19.285 2.4563Z" fill="#A0DAA6"/>
<path d="M3.99169 24.4423C3.16038 24.4423 2.44244 24.1526 1.83785 23.5732C1.25845 22.9686 0.96875 22.2507 0.96875 21.4194V3.28173C0.96875 2.45042 1.25845 1.74507 1.83785 1.16567C2.44244 0.561082 3.16038 0.258789 3.99169 0.258789H28.1752C29.0065 0.258789 29.7119 0.561082 30.2913 1.16567C30.8959 1.74507 31.1982 2.45042 31.1982 3.28173V21.4194C31.1982 22.2507 30.8959 22.9686 30.2913 23.5732C29.7119 24.1526 29.0065 24.4423 28.1752 24.4423H3.99169ZM3.99169 19.2278L21.4492 14.6933L18.5018 3.28173H3.99169V19.2278ZM7.58144 21.4194H28.1752V3.28173H21.6381L25.1523 16.885L7.58144 21.4194Z" fill="#063C8C"/>
<path d="M139.98 20.7327C138.996 20.7327 138.113 20.5764 137.332 20.2639C136.551 19.9436 135.887 19.5022 135.34 18.9397C134.801 18.3772 134.387 17.7249 134.098 16.9827C133.809 16.2327 133.664 15.4358 133.664 14.592V14.1233C133.664 13.1624 133.801 12.2834 134.074 11.4866C134.348 10.6897 134.738 9.99829 135.246 9.41235C135.762 8.82642 136.387 8.3772 137.121 8.0647C137.855 7.74438 138.684 7.58423 139.605 7.58423C140.504 7.58423 141.301 7.73267 141.996 8.02954C142.691 8.32642 143.273 8.74829 143.742 9.29517C144.219 9.84204 144.578 10.4983 144.82 11.2639C145.062 12.0217 145.184 12.8655 145.184 13.7952V15.2014H135.105V12.9514H141.867V12.6936C141.867 12.2249 141.781 11.8069 141.609 11.4397C141.445 11.0647 141.195 10.7678 140.859 10.5491C140.523 10.3303 140.094 10.2209 139.57 10.2209C139.125 10.2209 138.742 10.3186 138.422 10.5139C138.102 10.7092 137.84 10.9827 137.637 11.3342C137.441 11.6858 137.293 12.0999 137.191 12.5764C137.098 13.0452 137.051 13.5608 137.051 14.1233V14.592C137.051 15.0999 137.121 15.5686 137.262 15.9983C137.41 16.428 137.617 16.7991 137.883 17.1116C138.156 17.4241 138.484 17.6663 138.867 17.8381C139.258 18.01 139.699 18.0959 140.191 18.0959C140.801 18.0959 141.367 17.9788 141.891 17.7444C142.422 17.5022 142.879 17.1389 143.262 16.6545L144.902 18.4358C144.637 18.8186 144.273 19.1858 143.812 19.5374C143.359 19.8889 142.812 20.178 142.172 20.4045C141.531 20.6233 140.801 20.7327 139.98 20.7327Z" fill="black"/>
<path d="M124.02 10.2561V25.3733H120.645V7.8186H123.773L124.02 10.2561ZM132.047 14.0178V14.2639C132.047 15.1858 131.938 16.0413 131.719 16.8303C131.508 17.6194 131.195 18.3069 130.781 18.8928C130.367 19.4709 129.852 19.9241 129.234 20.2522C128.625 20.5725 127.922 20.7327 127.125 20.7327C126.352 20.7327 125.68 20.5764 125.109 20.2639C124.539 19.9514 124.059 19.5139 123.668 18.9514C123.285 18.3811 122.977 17.7209 122.742 16.9709C122.508 16.2209 122.328 15.4163 122.203 14.5569V13.9124C122.328 12.9905 122.508 12.1467 122.742 11.3811C122.977 10.6077 123.285 9.9397 123.668 9.3772C124.059 8.80688 124.535 8.36548 125.098 8.05298C125.668 7.74048 126.336 7.58423 127.102 7.58423C127.906 7.58423 128.613 7.73657 129.223 8.04126C129.84 8.34595 130.355 8.78345 130.77 9.35376C131.191 9.92407 131.508 10.6038 131.719 11.3928C131.938 12.1819 132.047 13.0569 132.047 14.0178ZM128.66 14.2639V14.0178C128.66 13.4788 128.613 12.9827 128.52 12.5295C128.434 12.0686 128.293 11.6663 128.098 11.3225C127.91 10.9788 127.66 10.7131 127.348 10.5256C127.043 10.3303 126.672 10.2327 126.234 10.2327C125.773 10.2327 125.379 10.3069 125.051 10.4553C124.73 10.6038 124.469 10.8186 124.266 11.0999C124.062 11.3811 123.91 11.717 123.809 12.1077C123.707 12.4983 123.645 12.9397 123.621 13.4319V15.0608C123.66 15.6389 123.77 16.1584 123.949 16.6194C124.129 17.0725 124.406 17.4319 124.781 17.6975C125.156 17.9631 125.648 18.0959 126.258 18.0959C126.703 18.0959 127.078 17.9983 127.383 17.803C127.688 17.5999 127.934 17.3225 128.121 16.9709C128.316 16.6194 128.453 16.2131 128.531 15.7522C128.617 15.2913 128.66 14.7952 128.66 14.2639Z" fill="black"/>
<path d="M106.559 14.2874V14.0413C106.559 13.1116 106.691 12.2561 106.957 11.4749C107.223 10.6858 107.609 10.0022 108.117 9.42407C108.625 8.84595 109.25 8.39673 109.992 8.07642C110.734 7.74829 111.586 7.58423 112.547 7.58423C113.508 7.58423 114.363 7.74829 115.113 8.07642C115.863 8.39673 116.492 8.84595 117 9.42407C117.516 10.0022 117.906 10.6858 118.172 11.4749C118.438 12.2561 118.57 13.1116 118.57 14.0413V14.2874C118.57 15.2092 118.438 16.0647 118.172 16.8538C117.906 17.635 117.516 18.3186 117 18.9045C116.492 19.4827 115.867 19.9319 115.125 20.2522C114.383 20.5725 113.531 20.7327 112.57 20.7327C111.609 20.7327 110.754 20.5725 110.004 20.2522C109.262 19.9319 108.633 19.4827 108.117 18.9045C107.609 18.3186 107.223 17.635 106.957 16.8538C106.691 16.0647 106.559 15.2092 106.559 14.2874ZM109.934 14.0413V14.2874C109.934 14.8186 109.98 15.3147 110.074 15.7756C110.168 16.2366 110.316 16.6428 110.52 16.9944C110.73 17.3381 111.004 17.6077 111.34 17.803C111.676 17.9983 112.086 18.0959 112.57 18.0959C113.039 18.0959 113.441 17.9983 113.777 17.803C114.113 17.6077 114.383 17.3381 114.586 16.9944C114.789 16.6428 114.938 16.2366 115.031 15.7756C115.133 15.3147 115.184 14.8186 115.184 14.2874V14.0413C115.184 13.5256 115.133 13.0413 115.031 12.5881C114.938 12.1272 114.785 11.7209 114.574 11.3694C114.371 11.01 114.102 10.7288 113.766 10.5256C113.43 10.3225 113.023 10.2209 112.547 10.2209C112.07 10.2209 111.664 10.3225 111.328 10.5256C111 10.7288 110.73 11.01 110.52 11.3694C110.316 11.7209 110.168 12.1272 110.074 12.5881C109.98 13.0413 109.934 13.5256 109.934 14.0413Z" fill="black"/>
<path d="M99.8203 18.0959C100.234 18.0959 100.602 18.0178 100.922 17.8616C101.242 17.6975 101.492 17.4709 101.672 17.1819C101.859 16.885 101.957 16.5374 101.965 16.1389H105.141C105.133 17.0295 104.895 17.8225 104.426 18.5178C103.957 19.2053 103.328 19.7483 102.539 20.1467C101.75 20.5374 100.867 20.7327 99.8906 20.7327C98.9062 20.7327 98.0469 20.5686 97.3125 20.2405C96.5859 19.9124 95.9805 19.4592 95.4961 18.8811C95.0117 18.2952 94.6484 17.6155 94.4062 16.842C94.1641 16.0608 94.043 15.2249 94.043 14.3342V13.9944C94.043 13.0959 94.1641 12.26 94.4062 11.4866C94.6484 10.7053 95.0117 10.0256 95.4961 9.44751C95.9805 8.86157 96.5859 8.40454 97.3125 8.07642C98.0391 7.74829 98.8906 7.58423 99.8672 7.58423C100.906 7.58423 101.816 7.78345 102.598 8.18188C103.387 8.58032 104.004 9.15063 104.449 9.89282C104.902 10.6272 105.133 11.4983 105.141 12.5061H101.965C101.957 12.0842 101.867 11.7014 101.695 11.3577C101.531 11.0139 101.289 10.7405 100.969 10.5374C100.656 10.3264 100.27 10.2209 99.8086 10.2209C99.3164 10.2209 98.9141 10.3264 98.6016 10.5374C98.2891 10.7405 98.0469 11.0217 97.875 11.3811C97.7031 11.7327 97.582 12.135 97.5117 12.5881C97.4492 13.0334 97.418 13.5022 97.418 13.9944V14.3342C97.418 14.8264 97.4492 15.2991 97.5117 15.7522C97.5742 16.2053 97.6914 16.6077 97.8633 16.9592C98.043 17.3108 98.2891 17.5881 98.6016 17.7913C98.9141 17.9944 99.3203 18.0959 99.8203 18.0959Z" fill="black"/>
<path d="M89.1094 16.9944C89.1094 16.7522 89.0391 16.5334 88.8984 16.3381C88.7578 16.1428 88.4961 15.9631 88.1133 15.7991C87.7383 15.6272 87.1953 15.4709 86.4844 15.3303C85.8438 15.1897 85.2461 15.0139 84.6914 14.803C84.1445 14.5842 83.668 14.3225 83.2617 14.0178C82.8633 13.7131 82.5508 13.3538 82.3242 12.9397C82.0977 12.5178 81.9844 12.0374 81.9844 11.4983C81.9844 10.967 82.0977 10.467 82.3242 9.99829C82.5586 9.52954 82.8906 9.11548 83.3203 8.7561C83.7578 8.38892 84.2891 8.10376 84.9141 7.90063C85.5469 7.6897 86.2578 7.58423 87.0469 7.58423C88.1484 7.58423 89.0938 7.76001 89.8828 8.11157C90.6797 8.46313 91.2891 8.94751 91.7109 9.5647C92.1406 10.1741 92.3555 10.8694 92.3555 11.6506H88.9805C88.9805 11.3225 88.9102 11.0295 88.7695 10.7717C88.6367 10.5061 88.4258 10.2991 88.1367 10.1506C87.8555 9.99438 87.4883 9.91626 87.0352 9.91626C86.6602 9.91626 86.3359 9.98267 86.0625 10.1155C85.7891 10.2405 85.5781 10.4124 85.4297 10.6311C85.2891 10.842 85.2188 11.0764 85.2188 11.3342C85.2188 11.5295 85.2578 11.7053 85.3359 11.8616C85.4219 12.01 85.5586 12.1467 85.7461 12.2717C85.9336 12.3967 86.1758 12.5139 86.4727 12.6233C86.7773 12.7249 87.1523 12.8186 87.5977 12.9045C88.5117 13.092 89.3281 13.3381 90.0469 13.6428C90.7656 13.9397 91.3359 14.3459 91.7578 14.8616C92.1797 15.3694 92.3906 16.0374 92.3906 16.8655C92.3906 17.428 92.2656 17.9436 92.0156 18.4124C91.7656 18.8811 91.4062 19.2913 90.9375 19.6428C90.4688 19.9866 89.9062 20.2561 89.25 20.4514C88.6016 20.6389 87.8711 20.7327 87.0586 20.7327C85.8789 20.7327 84.8789 20.5217 84.0586 20.0999C83.2461 19.678 82.6289 19.1428 82.207 18.4944C81.793 17.8381 81.5859 17.1663 81.5859 16.4788H84.7852C84.8008 16.9397 84.918 17.3108 85.1367 17.592C85.3633 17.8733 85.6484 18.0764 85.9922 18.2014C86.3438 18.3264 86.7227 18.3889 87.1289 18.3889C87.5664 18.3889 87.9297 18.3303 88.2188 18.2131C88.5078 18.0881 88.7266 17.9241 88.875 17.7209C89.0312 17.51 89.1094 17.2678 89.1094 16.9944Z" fill="black"/>
<path d="M72.1055 10.5256V20.4983H68.7305V7.8186H71.8945L72.1055 10.5256ZM71.6133 13.7131H70.6992C70.6992 12.7756 70.8203 11.9319 71.0625 11.1819C71.3047 10.4241 71.6445 9.77954 72.082 9.24829C72.5195 8.70923 73.0391 8.29907 73.6406 8.01782C74.25 7.72876 74.9297 7.58423 75.6797 7.58423C76.2734 7.58423 76.8164 7.67017 77.3086 7.84204C77.8008 8.01392 78.2227 8.28735 78.5742 8.66235C78.9336 9.03735 79.207 9.53345 79.3945 10.1506C79.5898 10.7678 79.6875 11.5217 79.6875 12.4124V20.4983H76.2891V12.4006C76.2891 11.8381 76.2109 11.4006 76.0547 11.0881C75.8984 10.7756 75.668 10.5569 75.3633 10.4319C75.0664 10.2991 74.6992 10.2327 74.2617 10.2327C73.8086 10.2327 73.4141 10.3225 73.0781 10.5022C72.75 10.6819 72.4766 10.9319 72.2578 11.2522C72.0469 11.5647 71.8867 11.9319 71.7773 12.3538C71.668 12.7756 71.6133 13.2288 71.6133 13.7131Z" fill="#063C8C"/>
<path d="M66.0117 7.8186V20.4983H62.625V7.8186H66.0117ZM62.4141 4.51392C62.4141 4.02173 62.5859 3.61548 62.9297 3.29517C63.2734 2.97485 63.7344 2.8147 64.3125 2.8147C64.8828 2.8147 65.3398 2.97485 65.6836 3.29517C66.0352 3.61548 66.2109 4.02173 66.2109 4.51392C66.2109 5.0061 66.0352 5.41235 65.6836 5.73267C65.3398 6.05298 64.8828 6.21313 64.3125 6.21313C63.7344 6.21313 63.2734 6.05298 62.9297 5.73267C62.5859 5.41235 62.4141 5.0061 62.4141 4.51392Z" fill="#063C8C"/>
<path d="M45.7734 17.7913L49.1719 3.43579H51.0703L51.5039 5.82642L47.8828 20.4983H45.8438L45.7734 17.7913ZM44.0273 3.43579L46.8398 17.7913L46.6055 20.4983H44.332L40.5469 3.43579H44.0273ZM54.4922 17.7327L57.2695 3.43579H60.75L56.9766 20.4983H54.7031L54.4922 17.7327ZM52.1367 3.43579L55.5586 17.8499L55.4648 20.4983H53.4258L49.7812 5.8147L50.25 3.43579H52.1367Z" fill="#063C8C"/>
</svg>
