<svg width="80" height="113" viewBox="0 0 80 113" fill="none" xmlns="http://www.w3.org/2000/svg">
<path fill-rule="evenodd" clip-rule="evenodd" d="M75.4718 4.06763H4.45251L4.45252 72.6919H75.4718V4.06763ZM4.45251 0.067627C2.24338 0.067627 0.452515 1.85849 0.452515 4.06763V72.6919C0.452515 74.901 2.24338 76.6919 4.45252 76.6919H75.4718C77.6809 76.6919 79.4718 74.901 79.4718 72.6919V4.06763C79.4718 1.85849 77.6809 0.067627 75.4718 0.067627H4.45251Z" fill="currentColor"/>
<rect x="17.671" y="70.741" width="19.1431" height="7.17871" fill="var(--drawer-color)"/>
<rect x="42.8446" y="70.741" width="19.1431" height="7.17871" fill="var(--drawer-color)"/>
<path d="M3.64539 14.563L76.0131 14.563" stroke="currentColor" stroke-width="4" stroke-linecap="round"/>
<path d="M20.5249 83.3372V56.6627C20.4636 54.9457 21.7391 49.8562 27.3316 49.8562C32.924 49.8562 34.0769 54.9457 33.9543 56.6627V83.3372" stroke="currentColor" stroke-width="3" stroke-linecap="round"/>
<path d="M20.5249 57.8592V84.5338H33.9543V57.8592C34.0769 56.1422 32.924 51.0527 27.3316 51.0527C21.7391 51.0527 20.4636 56.1422 20.5249 57.8592Z" fill="url(#paint0_linear_1270_831)"/>
<path d="M45.6982 53.8075V80.482H59.1276V53.8075C59.2502 52.0905 58.0974 47.001 52.5049 47.001C46.9124 47.001 45.6369 52.0905 45.6982 53.8075Z" fill="url(#paint1_linear_1270_831)"/>
<path d="M45.6982 79.1177V52.4432C45.6369 50.7262 46.9124 45.6367 52.5049 45.6367C58.0974 45.6367 59.2502 50.7262 59.1276 52.4432V79.1177" stroke="currentColor" stroke-width="3" stroke-linecap="round"/>
<path d="M37.6526 56.1996C38.3197 54.6526 38.6443 52.9301 38.5367 51.1335C38.1689 44.9972 32.8963 40.3208 26.7599 40.6886C20.6235 41.0564 15.9472 46.329 16.315 52.4653C16.3846 53.6272 16.6301 54.7368 17.024 55.7696" stroke="#A3A3A3" stroke-width="2" stroke-linecap="round"/>
<path d="M62.826 51.9802C63.4931 50.4331 63.8178 48.7106 63.7101 46.914C63.3424 40.7777 58.0697 36.1013 51.9334 36.4691C45.797 36.8369 41.1206 42.1095 41.4884 48.2459C41.5581 49.4077 41.8035 50.5173 42.1974 51.5502" stroke="#A3A3A3" stroke-width="2" stroke-linecap="round"/>
<path d="M15.8442 100.332C15.2585 100.917 15.2585 101.867 15.8442 102.453L25.3902 111.999C25.976 112.585 26.9257 112.585 27.5115 111.999C28.0973 111.413 28.0973 110.463 27.5115 109.878L19.0262 101.392L27.5115 92.9071C28.0973 92.3213 28.0973 91.3715 27.5115 90.7857C26.9257 90.1999 25.976 90.1999 25.3902 90.7857L15.8442 100.332ZM65.8008 102.453C66.3866 101.867 66.3866 100.917 65.8008 100.332L56.2548 90.7857C55.669 90.1999 54.7193 90.1999 54.1335 90.7857C53.5477 91.3715 53.5477 92.3213 54.1335 92.9071L62.6188 101.392L54.1335 109.878C53.5477 110.463 53.5477 111.413 54.1335 111.999C54.7193 112.585 55.669 112.585 56.2548 111.999L65.8008 102.453ZM16.9049 102.892L64.7401 102.892L64.7401 99.8923L16.9049 99.8923L16.9049 102.892Z" fill="currentColor"/>
<defs>
<linearGradient id="paint0_linear_1270_831" x1="27.2428" y1="51.0527" x2="27.2428" y2="87.5548" gradientUnits="userSpaceOnUse">
<stop stop-color="currentColor"/>
<stop offset="1" stop-color="#737373" stop-opacity="0"/>
</linearGradient>
<linearGradient id="paint1_linear_1270_831" x1="52.4162" y1="47.001" x2="52.4162" y2="84.1783" gradientUnits="userSpaceOnUse">
<stop stop-color="currentColor"/>
<stop offset="1" stop-color="#737373" stop-opacity="0"/>
</linearGradient>
</defs>
</svg>
