<svg width="90" height="67" viewBox="0 0 90 67" fill="none" xmlns="http://www.w3.org/2000/svg">
<path fill-rule="evenodd" clip-rule="evenodd" d="M59.2308 3.12373H3.71748L3.71748 56.765H59.2308V3.12373ZM3.71748 -0.00292969C1.99067 -0.00292969 0.59082 1.39692 0.59082 3.12373V56.765C0.59082 58.4918 1.99067 59.8916 3.71748 59.8916H59.2308C60.9576 59.8916 62.3575 58.4918 62.3575 56.765V3.12373C62.3575 1.39692 60.9576 -0.00292969 59.2308 -0.00292969H3.71748Z" fill="currentColor"/>
<rect x="14.0493" y="55.24" width="14.9635" height="5.61135" fill="var(--drawer-color)"/>
<rect x="33.7271" y="55.24" width="14.9635" height="5.61135"fill="var(--drawer-color)"/>
<path d="M3.08643 11.3276L59.6537 11.3276" stroke="currentColor" stroke-width="4" stroke-linecap="round"/>
<path d="M16.2809 65.0862V44.2357C16.233 42.8936 17.23 38.9153 21.6015 38.9153C25.9729 38.9153 26.874 42.8936 26.7782 44.2357V65.0862" stroke="currentColor" stroke-width="3" stroke-linecap="round"/>
<path d="M16.2809 45.1707V66.0213H26.7782V45.1707C26.874 43.8286 25.9729 39.8503 21.6014 39.8503C17.23 39.8503 16.233 43.8286 16.2809 45.1707Z" fill="url(#paint0_linear_1335_3183)"/>
<path d="M35.9582 42.0038V62.8543H46.4554V42.0038C46.5513 40.6616 45.6501 36.6833 41.2787 36.6833C36.9073 36.6833 35.9102 40.6616 35.9582 42.0038Z" fill="url(#paint1_linear_1335_3183)"/>
<path d="M35.9582 61.7877V40.9371C35.9102 39.595 36.9073 35.6167 41.2787 35.6167C45.6501 35.6167 46.5513 39.595 46.4554 40.9371V61.7877" stroke="currentColor" stroke-width="3" stroke-linecap="round"/>
<path d="M29.6686 43.8735C30.1901 42.6642 30.4439 41.3178 30.3597 39.9135C30.0722 35.1169 25.9508 31.4615 21.1542 31.749C16.3576 32.0365 12.7023 36.1579 12.9898 40.9545C13.0442 41.8627 13.2361 42.73 13.544 43.5374" stroke="#A3A3A3" stroke-width="2" stroke-linecap="round"/>
<path d="M49.3459 40.5754C49.8673 39.3661 50.1211 38.0197 50.0369 36.6154C49.7495 31.8188 45.628 28.1634 40.8315 28.4509C36.0349 28.7384 32.3795 32.8598 32.667 37.6564C32.7214 38.5646 32.9133 39.4319 33.2212 40.2393" stroke="#A3A3A3" stroke-width="2" stroke-linecap="round"/>
<path d="M76.9208 53.0611C77.5066 53.6469 78.4563 53.6469 79.0421 53.0611L88.588 43.5152C89.1738 42.9294 89.1738 41.9797 88.588 41.3939C88.0023 40.8081 87.0525 40.8081 86.4667 41.3939L77.9814 49.8792L69.4962 41.3939C68.9104 40.8081 67.9606 40.8081 67.3748 41.3939C66.7891 41.9797 66.7891 42.9294 67.3748 43.5152L76.9208 53.0611ZM79.0421 13.5487C78.4563 12.9629 77.5066 12.9629 76.9208 13.5487L67.3748 23.0946C66.7891 23.6804 66.7891 24.6302 67.3748 25.216C67.9606 25.8017 68.9104 25.8017 69.4962 25.216L77.9814 16.7307L86.4667 25.216C87.0525 25.8017 88.0023 25.8017 88.588 25.216C89.1738 24.6302 89.1738 23.6804 88.588 23.0946L79.0421 13.5487ZM79.4814 52.0005L79.4814 14.6094L76.4814 14.6094L76.4814 52.0005L79.4814 52.0005Z" fill="currentColor"/>
<defs>
<linearGradient id="paint0_linear_1335_3183" x1="21.5321" y1="39.8503" x2="21.5321" y2="68.3827" gradientUnits="userSpaceOnUse">
<stop stop-color="currentColor"/>
<stop offset="1" stop-color="#737373" stop-opacity="0"/>
</linearGradient>
<linearGradient id="paint1_linear_1335_3183" x1="41.2093" y1="36.6833" x2="41.2093" y2="65.7436" gradientUnits="userSpaceOnUse">
<stop stop-color="currentColor"/>
<stop offset="1" stop-color="#737373" stop-opacity="0"/>
</linearGradient>
</defs>
</svg>
