<svg width="19" height="20" viewBox="-2 -1.5 22 24" fill="none" xmlns="http://www.w3.org/2000/svg">
<path d="M15.9648 6.96399L9.85171 10.5762V17.6619L15.9648 14.1885V6.96399Z" fill="#D9D9D9"/>
<path d="M1.56618 6.35126L8.26924 10.6708V17.6619L1.56618 14.1885V6.35126Z" fill="#D9D9D9"/>
<path d="M8.02729 17.425V10.575L2.02729 7.1V13.95L8.02729 17.425ZM10.0273 17.425L16.0273 13.95V7.1L10.0273 10.575V17.425ZM9.02729 8.85L14.9523 5.425L9.02729 2L3.10229 5.425L9.02729 8.85ZM1.02729 15.7C0.710624 15.5167 0.460624 15.275 0.27729 14.975C0.110624 14.675 0.0272903 14.3417 0.0272903 13.975V6.025C0.0272903 5.65833 0.110624 5.325 0.27729 5.025C0.460624 4.725 0.710624 4.48333 1.02729 4.3L8.02729 0.274999C8.34396 0.0916662 8.67729 0 9.02729 0C9.37729 0 9.71062 0.0916662 10.0273 0.274999L17.0273 4.3C17.344 4.48333 17.5856 4.725 17.7523 5.025C17.9356 5.325 18.0273 5.65833 18.0273 6.025V13.975C18.0273 14.3417 17.9356 14.675 17.7523 14.975C17.5856 15.275 17.344 15.5167 17.0273 15.7L10.0273 19.725C9.71062 19.9083 9.37729 20 9.02729 20C8.67729 20 8.34396 19.9083 8.02729 19.725L1.02729 15.7Z" fill="currentColor"/>
</svg>
